<svg id="Layer_1" enable-background="new 0 0 496 496" height="512" viewBox="0 0 496 496" width="512" xmlns="http://www.w3.org/2000/svg"><path d="m250.671 308.369c77.748 0 141-63.252 141-141v-26.369c0-77.748-63.252-141-141-141-90.415 0-146.341 68.71-146.341 141v26.37c0 72.491 56.1 140.999 146.341 140.999zm-5.342-276.369h5.342c52.037 0 95.667 36.657 106.441 85.503-41.702 7.872-84.589 2.234-122.65-16.315 5.646-8.721 2.638-18.313-4.432-22.809-7.455-4.741-17.345-2.541-22.087 4.916-15.345 24.132-40.399 33.86-68.404 31.427 11.79-47.449 54.745-82.722 105.79-82.722zm-108.999 114.612c27.086 2.512 53.841-3.531 75.867-20.873 45.081 24.276 97.182 32.665 147.474 23.85v17.781c0 60.103-48.897 109-109 109h-5.342c-60.103 0-109-48.897-109-109v-20.758zm141.823 176.653h-60.307c-66.536 0-120.667 54.131-120.667 120.667v36.068c0 8.836 7.164 16 16 16s16-7.164 16-16v-36.068c0-38.394 24.532-71.163 58.743-83.465 8.069 25.497 31.947 44.033 60.078 44.033s52.009-18.536 60.077-44.033c34.211 12.303 58.743 45.071 58.743 83.465v36.068c0 8.836 7.164 16 16 16s16-7.164 16-16v-36.068c0-66.536-54.131-120.667-120.667-120.667zm-57.801 32h55.295c-11.702 22.896-43.574 22.931-55.295 0zm-26.972-166.568v-5.107c0-8.837 7.164-16 16-16s16 7.163 16 16v5.107c0 8.837-7.164 16-16 16s-16-7.163-16-16zm77.24 0v-5.107c0-8.837 7.164-16 16-16s16 7.163 16 16v5.107c0 8.837-7.164 16-16 16s-16-7.163-16-16z"/></svg>