<svg aria-hidden="true" style="position: absolute; width: 0; height: 0; overflow: hidden;" version="1.1" xmlns="http://www.w3.org/2000/svg" xmlns:xlink="http://www.w3.org/1999/xlink">
<defs>
<symbol id="icon-navigate-up-arrow" viewBox="0 0 32 32">
<title>navigate-up-arrow</title>
<path d="M17.584 7.536l13.759 13.76c0.876 0.875 0.876 2.294 0 3.169s-2.294 0.875-3.169 0l-12.174-12.175-12.174 12.175c-0.875 0.875-2.294 0.875-3.169 0s-0.875-2.294 0-3.169l13.759-13.76c0.438-0.437 1.011-0.656 1.584-0.656s1.147 0.219 1.584 0.656z"></path>
</symbol>
<symbol id="icon-mail" viewBox="0 0 32 32">
<title>mail</title>
<path d="M29.188 3.813h-26.375c-1.549 0-2.813 1.262-2.813 2.813v18.75c0 1.545 1.258 2.813 2.813 2.813h26.375c1.545 0 2.813-1.258 2.813-2.813v-18.75c0-1.545-1.258-2.813-2.813-2.813zM28.799 5.688l-12.739 12.74-12.85-12.74h25.589zM1.875 24.987v-17.982l9.030 8.953-9.030 9.030zM3.201 26.313l9.036-9.036 3.166 3.139c0.367 0.363 0.958 0.362 1.323-0.003l3.087-3.087 8.987 8.987h-25.598zM30.125 24.987l-8.987-8.987 8.987-8.987v17.973z"></path>
</symbol>
<symbol id="icon-user" viewBox="0 0 32 32">
<title>user</title>
<path d="M27.314 20.686c-1.743-1.743-3.817-3.033-6.080-3.814 2.424-1.669 4.016-4.463 4.016-7.623 0-5.1-4.15-9.25-9.25-9.25s-9.25 4.15-9.25 9.25c0 3.159 1.592 5.953 4.016 7.623-2.263 0.781-4.337 2.071-6.080 3.814-3.022 3.022-4.686 7.040-4.686 11.314h2.5c0-7.444 6.056-13.5 13.5-13.5s13.5 6.056 13.5 13.5h2.5c0-4.274-1.664-8.292-4.686-11.314zM16 16c-3.722 0-6.75-3.028-6.75-6.75s3.028-6.75 6.75-6.75c3.722 0 6.75 3.028 6.75 6.75s-3.028 6.75-6.75 6.75z"></path>
</symbol>
<symbol id="icon-search" viewBox="0 0 32 32">
<title>search</title>
<path d="M31.805 29.919l-9.296-9.296c1.763-2.177 2.824-4.944 2.824-7.957 0-6.984-5.682-12.667-12.667-12.667s-12.667 5.682-12.667 12.667 5.682 12.667 12.667 12.667c3.013 0 5.78-1.061 7.957-2.824l9.296 9.296c0.26 0.26 0.682 0.26 0.943 0l0.943-0.943c0.26-0.26 0.26-0.683-0-0.943zM12.667 22.667c-5.514 0-10-4.486-10-10s4.486-10 10-10 10 4.486 10 10-4.486 10-10 10z"></path>
</symbol>
<symbol id="icon-man" viewBox="0 0 32 32">
<title>man</title>
<path d="M26.316 25.928c-0.259 0-0.469 0.21-0.469 0.469v4.407c0 0.143-0.116 0.259-0.259 0.259h-2.52v-9.231c0-0.259-0.21-0.469-0.469-0.469s-0.469 0.21-0.469 0.469v9.231h-5.074l1.471-1.619c0.161-0.177 0.237-0.429 0.203-0.674-0.001-0.005-0.001-0.009-0.002-0.014l-1.401-8.279 0.378-0.568c0.209 0.148 0.37 0.291 0.671 0.291 0.307 0 0.594-0.172 0.735-0.454v-0l1.478-2.962 3.367 1.304c0.122 0.052 1.891 0.849 1.891 2.952v3.171c-0 0.259 0.21 0.469 0.469 0.469s0.469-0.21 0.469-0.469v-3.171c0-2.771-2.373-3.779-2.474-3.82-0.003-0.001-0.006-0.002-0.009-0.004l-5.604-2.17v-1.314c0.89-0.692 1.507-1.718 1.662-2.889 0.444-0.031 0.856-0.197 1.192-0.486 0.439-0.378 0.691-0.927 0.691-1.508 0-0.482-0.174-0.942-0.484-1.3v-1.736c-0-3.203-2.606-5.81-5.81-5.81s-5.809 2.606-5.809 5.81v1.782c-0.313 0.355-0.483 0.792-0.483 1.255 0 0.581 0.252 1.13 0.691 1.508 0.336 0.289 0.748 0.455 1.191 0.486 0.156 1.193 0.791 2.257 1.757 2.959v1.245l-5.598 2.17c-0.003 0.001-0.006 0.002-0.009 0.003-0.101 0.042-2.474 1.049-2.474 3.82v9.765c0 0.66 0.537 1.196 1.196 1.196h4.466c0.259 0 0.469-0.21 0.469-0.469s-0.21-0.469-0.469-0.469h-1.009v-9.231c0-0.259-0.21-0.469-0.469-0.469s-0.469 0.21-0.469 0.469v9.231h-2.52c-0.143 0-0.259-0.116-0.259-0.259v-9.765c0-2.111 1.781-2.905 1.89-2.952l3.365-1.304 1.478 2.963c0.141 0.283 0.429 0.454 0.735 0.454 0.3 0 0.459-0.141 0.671-0.291l0.378 0.568-1.401 8.279c-0.001 0.005-0.002 0.009-0.002 0.014-0.034 0.245 0.042 0.497 0.203 0.674l1.471 1.619h-1.875c-0.259 0-0.469 0.21-0.469 0.469s0.21 0.469 0.469 0.469h12.523c0.66 0 1.196-0.537 1.196-1.196v-4.407c-0-0.259-0.21-0.469-0.469-0.469zM19.711 16.442l-1.378 2.762c-0.034-0.024-0.765-0.543-1.657-1.177 0.387-0.478-0.066 0.081 1.702-2.101l1.333 0.516zM16.94 19.365l-0.357 0.538h-1.169l-0.357-0.538 0.942-0.669 0.942 0.669zM14.234 15.195v-0.877c0.569 0.23 1.178 0.336 1.773 0.336 0.615 0 1.217-0.131 1.753-0.365v0.91l-1.761 2.174-1.764-2.178zM21.305 8.846c-0 0.307-0.133 0.598-0.365 0.797-0.153 0.132-0.338 0.216-0.541 0.249v-2.092c0.539 0.088 0.906 0.534 0.906 1.046zM11.5 9.892c-0.545-0.088-0.906-0.539-0.906-1.046 0-0.501 0.415-0.909 0.906-1.022v2.069zM11.526 6.869c-0.149 0.017-0.32 0.058-0.448 0.101v-1.16c0-2.686 2.185-4.872 4.872-4.872s4.872 2.186 4.872 4.872v1.128c-0.136-0.041-0.278-0.069-0.423-0.082 0-0.452 0.004-0.365-1.476-1.956-0.272-0.292-0.722-0.354-1.065-0.13-1.633 1.067-3.625 1.603-5.463 1.471-0.403-0.030-0.77 0.235-0.869 0.628zM12.438 10.261v-3.079c2.023 0.119 4.145-0.483 5.859-1.58 0.679 0.729 1.046 1.111 1.165 1.256 0 0.368 0 2.982 0 3.402 0 1.903-1.552 3.455-3.455 3.455-2.137 0-3.569-1.658-3.569-3.455zM13.664 19.204l-1.378-2.762 1.331-0.515 1.703 2.102c-0.866 0.615-1.577 1.12-1.655 1.176zM14.202 28.856l1.357-8.016h0.879l1.357 8.016-1.796 1.976-1.797-1.976z"></path>
</symbol>
<symbol id="icon-child" viewBox="0 0 32 32">
<title>child</title>
<path d="M16.172 19.895c5.016 0 9.097-4.081 9.097-9.097v-1.701c0-5.016-4.081-9.097-9.097-9.097-5.833 0-9.441 4.433-9.441 9.097v1.701c0 4.677 3.619 9.097 9.441 9.097zM15.828 2.065h0.345c3.357 0 6.172 2.365 6.867 5.516-2.69 0.508-5.457 0.144-7.913-1.053 0.364-0.563 0.17-1.181-0.286-1.472-0.481-0.306-1.119-0.164-1.425 0.317-0.99 1.557-2.606 2.185-4.413 2.028 0.761-3.061 3.532-5.337 6.825-5.337zM8.795 9.459c1.747 0.162 3.474-0.228 4.895-1.347 2.908 1.566 6.27 2.107 9.514 1.539v1.147c0 3.878-3.155 7.032-7.032 7.032h-0.345c-3.878 0-7.032-3.155-7.032-7.032v-1.339zM17.945 20.856h-3.891c-4.293 0-7.785 3.492-7.785 7.785v2.327c0 0.57 0.462 1.032 1.032 1.032s1.032-0.462 1.032-1.032v-2.327c0-2.477 1.583-4.591 3.79-5.385 0.521 1.645 2.061 2.841 3.876 2.841s3.355-1.196 3.876-2.841c2.207 0.794 3.79 2.908 3.79 5.385v2.327c0 0.57 0.462 1.032 1.032 1.032s1.032-0.462 1.032-1.032v-2.327c0-4.293-3.492-7.785-7.785-7.785zM14.216 22.92h3.567c-0.755 1.477-2.811 1.479-3.567 0zM12.476 12.174v-0.329c0-0.57 0.462-1.032 1.032-1.032s1.032 0.462 1.032 1.032v0.329c0 0.57-0.462 1.032-1.032 1.032s-1.032-0.462-1.032-1.032zM17.459 12.174v-0.329c0-0.57 0.462-1.032 1.032-1.032s1.032 0.462 1.032 1.032v0.329c0 0.57-0.462 1.032-1.032 1.032s-1.032-0.462-1.032-1.032z"></path>
</symbol>
<symbol id="icon-pass" viewBox="0 0 32 32">
<title>pass</title>
<path d="M29.188 3.813h-26.375c-1.551 0-2.813 1.262-2.813 2.813v18.75c0 1.551 1.262 2.813 2.813 2.813h26.375c1.551 0 2.813-1.262 2.813-2.813v-18.75c0-1.551-1.262-2.813-2.813-2.813zM30.125 25.375c0 0.517-0.421 0.938-0.938 0.938h-26.375c-0.517 0-0.938-0.421-0.938-0.938v-18.75c0-0.517 0.421-0.938 0.938-0.938h26.375c0.517 0 0.938 0.421 0.938 0.938v18.75z"></path>
<path d="M9.375 15.063c-3.102 0-5.625 2.523-5.625 5.625v0.938c0 1.551 1.262 2.813 2.813 2.813h5.625c1.551 0 2.813-1.262 2.813-2.813v-0.938c0-3.102-2.523-5.625-5.625-5.625zM13.125 21.625c0 0.517-0.421 0.938-0.938 0.938h-5.625c-0.517 0-0.938-0.421-0.938-0.938v-0.938c0-2.068 1.682-3.75 3.75-3.75s3.75 1.682 3.75 3.75v0.938z"></path>
<path d="M9.375 7.563c-2.068 0-3.75 1.682-3.75 3.75s1.682 3.75 3.75 3.75 3.75-1.682 3.75-3.75-1.682-3.75-3.75-3.75zM9.375 13.188c-1.034 0-1.875-0.841-1.875-1.875s0.841-1.875 1.875-1.875 1.875 0.841 1.875 1.875-0.841 1.875-1.875 1.875z"></path>
<path d="M27.313 20.688h-9.375c-0.518 0-0.938 0.42-0.938 0.938s0.42 0.938 0.938 0.938h9.375c0.518 0 0.938-0.42 0.938-0.938s-0.42-0.938-0.938-0.938z"></path>
<path d="M27.313 16.938h-9.375c-0.518 0-0.938 0.42-0.938 0.938s0.42 0.938 0.938 0.938h9.375c0.518 0 0.938-0.42 0.938-0.938s-0.42-0.938-0.938-0.938z"></path>
<path d="M27.313 13.188h-9.375c-0.518 0-0.938 0.42-0.938 0.938s0.42 0.938 0.938 0.938h9.375c0.518 0 0.938-0.42 0.938-0.938s-0.42-0.938-0.938-0.938z"></path>
<path d="M25.438 9.438h-5.625c-0.518 0-0.938 0.42-0.938 0.938s0.42 0.938 0.938 0.938h5.625c0.518 0 0.938-0.42 0.938-0.938s-0.42-0.938-0.938-0.938z"></path>
</symbol>
<symbol id="icon-twitter" viewBox="0 0 32 32">
<title>twitter</title>
<path fill="#fad860" style="fill: var(--color1, #fad860)" d="M32 6.078c-1.19 0.522-2.458 0.868-3.78 1.036 1.36-0.812 2.398-2.088 2.886-3.626-1.268 0.756-2.668 1.29-4.16 1.588-1.204-1.282-2.92-2.076-4.792-2.076-3.632 0-6.556 2.948-6.556 6.562 0 0.52 0.044 1.020 0.152 1.496-5.454-0.266-10.28-2.88-13.522-6.862-0.566 0.982-0.898 2.106-0.898 3.316 0 2.272 1.17 4.286 2.914 5.452-1.054-0.020-2.088-0.326-2.964-0.808 0 0.020 0 0.046 0 0.072 0 3.188 2.274 5.836 5.256 6.446-0.534 0.146-1.116 0.216-1.72 0.216-0.42 0-0.844-0.024-1.242-0.112 0.85 2.598 3.262 4.508 6.13 4.57-2.232 1.746-5.066 2.798-8.134 2.798-0.538 0-1.054-0.024-1.57-0.090 2.906 1.874 6.35 2.944 10.064 2.944 12.072 0 18.672-10 18.672-18.668 0-0.29-0.010-0.57-0.024-0.848 1.302-0.924 2.396-2.078 3.288-3.406z"></path>
</symbol>
<symbol id="icon-instagram" viewBox="0 0 32 32">
<title>instagram</title>
<path fill="#fad860" style="fill: var(--color1, #fad860)" d="M31.969 9.408c-0.075-1.7-0.35-2.869-0.744-3.882-0.406-1.075-1.031-2.038-1.85-2.838-0.8-0.813-1.769-1.444-2.832-1.844-1.019-0.394-2.182-0.669-3.882-0.744-1.713-0.081-2.257-0.1-6.601-0.1s-4.888 0.019-6.595 0.094c-1.7 0.075-2.869 0.35-3.882 0.744-1.075 0.406-2.038 1.031-2.838 1.85-0.813 0.8-1.444 1.769-1.844 2.832-0.394 1.019-0.669 2.182-0.744 3.882-0.081 1.713-0.1 2.257-0.1 6.601s0.019 4.888 0.094 6.595c0.075 1.7 0.35 2.869 0.744 3.882 0.406 1.075 1.038 2.038 1.85 2.838 0.8 0.813 1.769 1.444 2.832 1.844 1.019 0.394 2.182 0.669 3.882 0.744 1.706 0.075 2.25 0.094 6.595 0.094s4.888-0.019 6.595-0.094c1.7-0.075 2.869-0.35 3.882-0.744 2.151-0.831 3.851-2.532 4.682-4.682 0.394-1.019 0.669-2.182 0.744-3.882 0.075-1.707 0.094-2.25 0.094-6.595s-0.006-4.888-0.081-6.595zM29.087 22.473c-0.069 1.563-0.331 2.407-0.55 2.969-0.538 1.394-1.644 2.5-3.038 3.038-0.563 0.219-1.413 0.481-2.969 0.55-1.688 0.075-2.194 0.094-6.464 0.094s-4.782-0.019-6.464-0.094c-1.563-0.069-2.407-0.331-2.969-0.55-0.694-0.256-1.325-0.663-1.838-1.194-0.531-0.519-0.938-1.144-1.194-1.838-0.219-0.563-0.481-1.413-0.55-2.969-0.075-1.688-0.094-2.194-0.094-6.464s0.019-4.782 0.094-6.464c0.069-1.563 0.331-2.407 0.55-2.969 0.256-0.694 0.663-1.325 1.2-1.838 0.519-0.531 1.144-0.938 1.838-1.194 0.563-0.219 1.413-0.481 2.969-0.55 1.688-0.075 2.194-0.094 6.464-0.094 4.276 0 4.782 0.019 6.464 0.094 1.563 0.069 2.407 0.331 2.969 0.55 0.694 0.256 1.325 0.662 1.838 1.194 0.531 0.519 0.938 1.144 1.194 1.838 0.219 0.563 0.481 1.413 0.55 2.969 0.075 1.688 0.094 2.194 0.094 6.464s-0.019 4.77-0.094 6.458z"></path>
<path fill="#fad860" style="fill: var(--color1, #fad860)" d="M16.059 7.783c-4.538 0-8.22 3.682-8.22 8.22s3.682 8.22 8.22 8.22c4.538 0 8.22-3.682 8.22-8.22s-3.682-8.22-8.22-8.22zM16.059 21.335c-2.944 0-5.332-2.388-5.332-5.332s2.388-5.332 5.332-5.332c2.944 0 5.332 2.388 5.332 5.332s-2.388 5.332-5.332 5.332z"></path>
<path fill="#fad860" style="fill: var(--color1, #fad860)" d="M26.524 7.458c0 1.060-0.859 1.919-1.919 1.919s-1.919-0.859-1.919-1.919c0-1.060 0.859-1.919 1.919-1.919s1.919 0.859 1.919 1.919z"></path>
</symbol>
<symbol id="icon-facebook" viewBox="0 0 32 32">
<title>facebook</title>
<path fill="#fad860" style="fill: var(--color1, #fad860)" d="M23.999 0.007l-4.15-0.007c-4.662 0-7.675 3.091-7.675 7.875v3.631h-4.172c-0.361 0-0.652 0.292-0.652 0.653v5.261c0 0.361 0.292 0.652 0.652 0.652h4.172v13.275c0 0.361 0.292 0.653 0.652 0.653h5.444c0.361 0 0.652-0.292 0.652-0.652v-13.275h4.878c0.361 0 0.652-0.292 0.652-0.652l0.002-5.261c0-0.173-0.069-0.339-0.191-0.461s-0.289-0.191-0.462-0.191h-4.88v-3.078c0-1.479 0.353-2.23 2.28-2.23l2.795-0.001c0.36 0 0.652-0.292 0.652-0.652v-4.885c0-0.36-0.292-0.652-0.651-0.652z"></path>
</symbol>
<symbol id="icon-people" viewBox="0 0 32 32">
<title>people</title>
<path d="M16 9.35c-2.513 0-4.557 2.044-4.557 4.557s2.044 4.557 4.557 4.557 4.557-2.044 4.557-4.557c0-2.513-2.044-4.557-4.557-4.557zM16 16.439c-1.396 0-2.532-1.136-2.532-2.532s1.136-2.532 2.532-2.532 2.532 1.136 2.532 2.532-1.136 2.532-2.532 2.532z"></path>
<path d="M16 16.405c-3.741 0-6.785 3.044-6.785 6.785v1.519c0 0.559 0.453 1.013 1.013 1.013s1.013-0.453 1.013-1.013v-1.519c0-2.625 2.135-4.759 4.759-4.759s4.759 2.135 4.759 4.759v1.519c0 0.559 0.453 1.013 1.013 1.013s1.013-0.453 1.013-1.013v-1.519c-0-3.741-3.044-6.785-6.785-6.785z"></path>
<path d="M25.215 6.279c-2.513 0-4.557 2.044-4.557 4.557s2.044 4.557 4.557 4.557c2.513 0 4.557-2.044 4.557-4.557s-2.044-4.557-4.557-4.557zM25.215 13.367c-1.396 0-2.532-1.136-2.532-2.532s1.136-2.532 2.532-2.532 2.532 1.136 2.532 2.532-1.136 2.532-2.532 2.532z"></path>
<path d="M25.215 13.333c-3.103 0-5.811 2.103-6.584 5.115-0.139 0.541 0.187 1.093 0.729 1.232 0.542 0.14 1.093-0.187 1.232-0.729 0.543-2.116 2.445-3.594 4.623-3.594 2.625 0 4.759 2.135 4.759 4.759v1.519c0 0.559 0.453 1.013 1.013 1.013s1.013-0.453 1.013-1.013v-1.519c-0-3.741-3.044-6.785-6.785-6.785z"></path>
<path d="M6.785 6.279c-2.513 0-4.557 2.044-4.557 4.557s2.044 4.557 4.557 4.557c2.513 0 4.557-2.044 4.557-4.557s-2.044-4.557-4.557-4.557zM6.785 13.367c-1.396 0-2.532-1.136-2.532-2.532s1.135-2.532 2.532-2.532 2.532 1.136 2.532 2.532-1.136 2.532-2.532 2.532z"></path>
<path d="M13.335 18.415c-0.768-2.992-3.462-5.082-6.551-5.082-3.741-0-6.785 3.044-6.785 6.785v1.519c0 0.559 0.453 1.013 1.013 1.013s1.013-0.453 1.013-1.013v-1.519c0-2.624 2.135-4.759 4.76-4.759 2.164 0 4.051 1.464 4.589 3.56 0.139 0.541 0.689 0.867 1.233 0.729 0.542-0.139 0.868-0.691 0.729-1.233z"></path>
</symbol>
<symbol id="icon-calendar" viewBox="0 0 32 32">
<title>calendar</title>
<path d="M28.25 2.5h-1.5v-2.5h-2.5v2.5h-16.5v-2.5h-2.5v2.5h-1.5c-2.068 0-3.75 1.682-3.75 3.75v22c0 2.068 1.682 3.75 3.75 3.75h24.5c2.068 0 3.75-1.682 3.75-3.75v-22c0-2.068-1.682-3.75-3.75-3.75zM29.5 28.25c0 0.689-0.561 1.25-1.25 1.25h-24.5c-0.689 0-1.25-0.561-1.25-1.25v-16.5h27v16.5zM29.5 9.25h-27v-3c0-0.689 0.561-1.25 1.25-1.25h1.5v2.5h2.5v-2.5h16.5v2.5h2.5v-2.5h1.5c0.689 0 1.25 0.561 1.25 1.25v3z"></path>
<path d="M4.75 14.375h2.5v2.5h-2.5v-2.5z"></path>
<path d="M9.75 14.375h2.5v2.5h-2.5v-2.5z"></path>
<path d="M14.75 14.375h2.5v2.5h-2.5v-2.5z"></path>
<path d="M19.75 14.375h2.5v2.5h-2.5v-2.5z"></path>
<path d="M24.75 14.375h2.5v2.5h-2.5v-2.5z"></path>
<path d="M4.75 19.375h2.5v2.5h-2.5v-2.5z"></path>
<path d="M9.75 19.375h2.5v2.5h-2.5v-2.5z"></path>
<path d="M14.75 19.375h2.5v2.5h-2.5v-2.5z"></path>
<path d="M19.75 19.375h2.5v2.5h-2.5v-2.5z"></path>
<path d="M4.75 24.375h2.5v2.5h-2.5v-2.5z"></path>
<path d="M9.75 24.375h2.5v2.5h-2.5v-2.5z"></path>
<path d="M14.75 24.375h2.5v2.5h-2.5v-2.5z"></path>
<path d="M19.75 24.375h2.5v2.5h-2.5v-2.5z"></path>
<path d="M24.75 19.375h2.5v2.5h-2.5v-2.5z"></path>
</symbol>
<symbol id="icon-bed" viewBox="0 0 32 32">
<title>bed</title>
<path d="M30.667 16.333v-2.667c0-2.027-1.307-3.333-3.333-3.333h-15.333c-2.027 0-3.333 1.307-3.333 3.333v2.646l-7.333 0.014v-11.307c0-0.333-0.24-0.633-0.567-0.68-0.413-0.060-0.767 0.26-0.767 0.66v21.98c0 0.333 0.24 0.633 0.567 0.68 0.413 0.060 0.767-0.26 0.767-0.66v-4h29.333v3.98c0 0.333 0.24 0.633 0.567 0.68 0.413 0.060 0.767-0.26 0.767-0.66v-9.333c0-0.907-0.427-1.327-1.333-1.333zM10 13.667c0-1.74 1.253-2 2-2h15.333c0.747 0 2 0.26 2 2v2.667h-19.333v-2.667zM30.667 21.667h-29.333v-4h29.333v4z"></path>
<path d="M5.031 8.906c-2.045 0-3.703 1.658-3.703 3.703s1.658 3.703 3.703 3.703 3.703-1.658 3.703-3.703c0-2.045-1.658-3.703-3.703-3.703zM5.031 15.125c-1.389 0-2.516-1.126-2.516-2.516s1.126-2.516 2.516-2.516 2.516 1.126 2.516 2.516-1.126 2.516-2.516 2.516z"></path>
</symbol>
</defs>
</svg>
